<svg xmlns="http://www.w3.org/2000/svg" width="151" height="120" viewBox="0 0 151 120">
  <g id="Group_19884" data-name="Group 19884" transform="translate(0 0)">
    <ellipse id="Ellipse_1280" data-name="Ellipse 1280" cx="48.062" cy="60" rx="48.062" ry="60" transform="translate(27.424)" fill="#f0f1f8"/>
    <path id="Path_26197" data-name="Path 26197" d="M556.883,1604.625h-31.21c-6.156,0-14.471-1.645-19.952,1.585-1.89,1.107-.918,3.738-.918,5.862V1705h74.812v-77.043S561.257,1604.625,556.883,1604.625Z" transform="translate(-466.75 -1597.109)" fill="#fff"/>
    <path id="Path_26198" data-name="Path 26198" d="M565.545,1645.676a22.957,22.957,0,0,0-34.619-7.853c-6.11,7.672-8.1,16.1-4.445,25.312,3.658,9.272,10.919,14.166,20.893,15.375-.3.121-.393.211-.514.211-1.089.03-2.2.06-3.3.06a3.752,3.752,0,0,0-.635.06,22.93,22.93,0,0,0,22.616-33.164Z" transform="translate(-471.198 -1597.587)" fill="#6f36ff"/>
    <path id="Path_26199" data-name="Path 26199" d="M547.465,1678.631c.121,0,.241-.091.514-.211-9.978-1.208-17.229-6.1-20.893-15.375-3.628-9.212-1.663-17.612,4.445-25.311a22.983,22.983,0,0,0-6.47,28.42,22.731,22.731,0,0,0,11.726,10.908,1.2,1.2,0,0,1,.635.272,23.115,23.115,0,0,0,6.047,1.389,3.752,3.752,0,0,1,.635-.06C545.258,1678.662,546.376,1678.631,547.465,1678.631Z" transform="translate(-469.38 -1597.616)" fill="#fff"/>
    <path id="Path_26200" data-name="Path 26200" d="M478.952,1670.447a1.731,1.731,0,0,0,.934-2.264q-.026-.063-.057-.123a1.781,1.781,0,0,0-2.354-.892c-.032.014-.064.03-.1.046a1.659,1.659,0,0,0-.816,2.417,1.623,1.623,0,0,0,2.081.967A1.6,1.6,0,0,0,478.952,1670.447Z" transform="translate(-458.785 -1597.705)" fill="#2b265e"/>
    <ellipse id="Ellipse_1281" data-name="Ellipse 1281" cx="1.723" cy="1.721" rx="1.723" ry="1.721" transform="translate(129.745 74.81)" fill="#e7e6e6"/>
    <ellipse id="Ellipse_1282" data-name="Ellipse 1282" cx="1.723" cy="1.721" rx="1.723" ry="1.721" transform="translate(147.554 54.175)" fill="#8c94c9"/>
    <ellipse id="Ellipse_1283" data-name="Ellipse 1283" cx="1.723" cy="1.721" rx="1.723" ry="1.721" transform="translate(133.192 28.78)" fill="#8c94c9"/>
    <ellipse id="Ellipse_1284" data-name="Ellipse 1284" cx="1.723" cy="1.721" rx="1.723" ry="1.721" transform="translate(19.381 27.343)" fill="#e7e6e6"/>
    <ellipse id="Ellipse_1285" data-name="Ellipse 1285" cx="1.723" cy="1.721" rx="1.723" ry="1.721" transform="translate(0 54.175)" fill="#97d3f1"/>
    <path id="Path_26201" data-name="Path 26201" d="M499.059,1666.851c.241.091.454.181.7.272A2.073,2.073,0,0,0,499.059,1666.851Z" transform="translate(-464.528 -1597.686)" fill="#fff"/>
    <g id="Group_19881" data-name="Group 19881" transform="translate(21.992 5.071)">
      <path id="Path_26202" data-name="Path 26202" d="M501.159,1703.281v-5.116c0-.748-.107-1.5-.107-2.244v-57.146a12.163,12.163,0,0,1,.161-2.214,1.7,1.7,0,0,1,1.634-1.645,1.888,1.888,0,0,1,1.66,1.825,14.016,14.016,0,0,1,.027,1.5V1702.8c1.071.3,69.555.389,71.35.09V1629.8c-.455-.03-.937-.06-1.393-.06H560.558a6.683,6.683,0,0,1-1.714-.179,3.907,3.907,0,0,1-2.919-3.469,13.247,13.247,0,0,1-.214-2.513c-.027-5.236,0-10.471,0-15.707v-1.7c-.589-.03-1.018-.09-1.473-.09H508.169a3.145,3.145,0,0,0-3.455,2.394,6.493,6.493,0,0,0-.161,1.616V1623.1a7.584,7.584,0,0,1-.053,1.346,1.732,1.732,0,0,1-1.473,1.5,1.525,1.525,0,0,1-1.741-1.257,7.8,7.8,0,0,1-.214-1.915c.027-4.488.134-8.976.134-13.464.134-3.859,2.919-6.945,6.375-7.061,3.669-.059,7.312-.03,10.981-.03q19,0,38.032-.03a2.935,2.935,0,0,1,2.464,1.167c6.455,7.719,12.963,15.409,19.444,23.1a3.543,3.543,0,0,1,.8,2.424c-.027,4.338,0,8.676,0,13.015v61.305a6.867,6.867,0,0,0,1.044.12h6.832a6.432,6.432,0,0,1,1.071.03,1.758,1.758,0,0,1,1.393,1.586,1.731,1.731,0,0,1-1.071,1.855,3.906,3.906,0,0,1-1.312.179H491.111a3.241,3.241,0,0,1-.937-.06,1.862,1.862,0,0,1-1.366-1.945,1.715,1.715,0,0,1,1.473-1.675,4.763,4.763,0,0,1,.937-.03h8.437C500.058,1703.281,500.513,1703.281,501.159,1703.281Z" transform="translate(-488.807 -1602.18)" fill="#2b265e"/>
      <path id="Path_26203" data-name="Path 26203" d="M568,1655.948a22.141,22.141,0,0,0-6.773-15.981,21.6,21.6,0,0,0-14.124-6.343,22.353,22.353,0,0,0-23.973,19.938,22.94,22.94,0,0,0,1.965,12.051,3.182,3.182,0,0,1,.3,1.571,1.826,1.826,0,0,1-1.633,1.54,1.8,1.8,0,0,1-1.935-1.178,48.652,48.652,0,0,1-2-5.679A26.161,26.161,0,0,1,539,1630.514a25.385,25.385,0,0,1,23.7,5.618,24.946,24.946,0,0,1,8.738,15.435,26.458,26.458,0,0,1-21.014,30.356,26.126,26.126,0,0,1-17.808-2.839,2.162,2.162,0,0,1-1.421-1.963,1.822,1.822,0,0,1,1.737-1.9,1.842,1.842,0,0,1,.742.121,8.957,8.957,0,0,1,.938.453,23.271,23.271,0,0,0,10.582,2.658,22.279,22.279,0,0,0,22.314-18.244C567.754,1658.757,567.844,1657.337,568,1655.948Z" transform="translate(-494.701 -1602.698)" fill="#29275c"/>
      <path id="Path_26204" data-name="Path 26204" d="M506.739,1630.968a1.922,1.922,0,0,1-3.84.181,2.1,2.1,0,0,1,1.814-2.053A2.039,2.039,0,0,1,506.739,1630.968Z" transform="translate(-488.807 -1602.444)" fill="#29275c"/>
      <path id="Path_26205" data-name="Path 26205" d="M529.324,1672.349a1.877,1.877,0,0,1-1.82,1.932h-.054a2.036,2.036,0,0,1-1.9-1.782,1.988,1.988,0,0,1,1.808-2.022A1.962,1.962,0,0,1,529.324,1672.349Z" transform="translate(-492.93 -1602.85)" fill="#29275c"/>
      <path id="Path_26206" data-name="Path 26206" d="M608.421,1706a2.012,2.012,0,0,1-1.965,1.9,1.938,1.938,0,0,1,.03-3.867A2.06,2.06,0,0,1,608.421,1706Z" transform="translate(-501.807 -1603.18)" fill="#29275c"/>
    </g>
    <g id="Group_19882" data-name="Group 19882" transform="translate(61.934 47.292)">
      <path id="Path_26207" data-name="Path 26207" d="M552.393,1655.042a3.767,3.767,0,0,1-4.508-.06,3.951,3.951,0,0,1-4.656,0,3.811,3.811,0,0,1-4.566.03c-.181.091-.333.211-.514.3a3.481,3.481,0,0,1-5.14-2.93v-.184c.03-1.9-.211-1.3.968-2.839.968-1.239,2-2.477,2.963-3.746a1.726,1.726,0,0,1,1.512-.724c4.656.03,9.282.03,13.939,0a2.246,2.246,0,0,1,2.026,1c1,1.389,2.087,2.749,3.144,4.078a1.921,1.921,0,0,1,.454,1.329c-.03.362,0,.755,0,1.118a3.531,3.531,0,0,1-3.719,3.322,4.47,4.47,0,0,1-1.24-.362A3.413,3.413,0,0,1,552.393,1655.042Zm-6.864-8.065H539a.871.871,0,0,0-.816.392c-.877,1.118-1.723,2.266-2.63,3.322a2.226,2.226,0,0,0-.424,2.053,1.072,1.072,0,0,0,1.028.937,1.5,1.5,0,0,0,1.573-.665,1.018,1.018,0,0,1,1.814-.03c.06.06.091.181.151.211a2.117,2.117,0,0,0,.635.423,1.736,1.736,0,0,0,2.026-.635.9.9,0,0,1,1.179-.453,1.8,1.8,0,0,1,.665.513,1.669,1.669,0,0,0,2.325.4,1.7,1.7,0,0,0,.4-.4,1.058,1.058,0,0,1,1.874,0,1.7,1.7,0,0,0,2.782-.03,1.055,1.055,0,0,1,1.844.03c.06.06.091.151.151.211.363.573.938.513,1.482.423a1.013,1.013,0,0,0,.876-1c.03-.272,0-.575.03-.846a1.148,1.148,0,0,0-.3-.907c-.908-1.148-1.814-2.326-2.722-3.5a1,1,0,0,0-.876-.423c-2.207-.026-4.353-.026-6.53-.026Z" transform="translate(-533.008 -1644.884)" fill="#fff"/>
      <path id="Path_26208" data-name="Path 26208" d="M549.7,1664.768h4.172a3.145,3.145,0,0,0,.03-.513v-6.919a1.018,1.018,0,0,1,2.025.03v.392c0,2.6-.03,5.2,0,7.762a1.24,1.24,0,0,1-1.109,1.359,1.331,1.331,0,0,1-.251,0q-9.116-.045-18.231,0a1.2,1.2,0,0,1-1.33-1.359c.03-2.628,0-5.226,0-7.854v-.331a1,1,0,0,1,.938-.907,1.048,1.048,0,0,1,1.089.846,2.934,2.934,0,0,1,.03.513v6.977h4.172c0-.181.03-.362.03-.543,0-1.812.03-3.625,0-5.437a1.2,1.2,0,0,1,1.3-1.329c1.9.03,3.84,0,5.745.03.968,0,1.3.332,1.3,1.3v5.226A1.911,1.911,0,0,1,549.7,1664.768Zm-6.229-5.226v5.2h4.142v-5.2Z" transform="translate(-533.008 -1644.884)" fill="#fff"/>
      <path id="Path_26209" data-name="Path 26209" d="M545.53,1652.2h-8.164a1.774,1.774,0,0,1-.7-.121,1.011,1.011,0,0,1-.544-1.088,1.028,1.028,0,0,1,.846-.816,2.937,2.937,0,0,1,.514,0h16.539a1,1,0,0,1,.907,1.027,1.042,1.042,0,0,1-.907,1.027,2.937,2.937,0,0,1-.514,0c-2.661-.03-5.321-.03-7.983-.03Z" transform="translate(-533.008 -1644.884)" fill="#fff"/>
    </g>
    <g id="Group_19883" data-name="Group 19883" transform="translate(46.049 87.922)">
      <path id="Path_26210" data-name="Path 26210" d="M529.444,1690.109c-.151-.03-.333-.06-.484-.091-.241-.03-.514-.091-.756-.121-.635-.091-1.33-.211-2-.272a.544.544,0,0,1-.514-.392c-.333-.724-.7-1.42-1.028-2.115l-.363-.755a.743.743,0,0,0-.7-.513.871.871,0,0,0-.7.573l-.454.937c-.333.634-.635,1.3-.968,1.963a.431.431,0,0,1-.393.272c-.938.121-1.935.272-3.205.483a.97.97,0,0,0-.665.392c-.272.423.091.756.241.907l.091.091a2.677,2.677,0,0,0,.3.272l.514.513c.454.453.938.907,1.421,1.359a.46.46,0,0,1,.151.513c-.121.575-.211,1.148-.3,1.691l-.03.241c-.06.332-.121.665-.151,1l-.06.453v.03a.673.673,0,0,0,.273.6.7.7,0,0,0,.635.06,1.138,1.138,0,0,0,.333-.151l.06-.03c.241-.121.454-.241.7-.362.6-.332,1.27-.664,1.874-1a.545.545,0,0,1,.665,0c.6.362,1.27.664,1.874,1,.241.121.484.241.7.362l.091.03a1.138,1.138,0,0,0,.333.151,1.559,1.559,0,0,0,.333.06.6.6,0,0,0,.614-.588.575.575,0,0,0-.013-.137c0-.091-.03-.181-.03-.242v-.06c-.06-.272-.091-.573-.151-.846-.121-.694-.211-1.42-.363-2.115a.706.706,0,0,1,.272-.755c.756-.694,1.451-1.389,2.238-2.2.3-.332.333-.573.272-.755A.936.936,0,0,0,529.444,1690.109Zm-3.779,3.776c.121.573.211,1.178.3,1.752l.06.362-.241-.121c-.544-.272-1.089-.573-1.633-.876a.913.913,0,0,0-1.028,0l-1.36.724-.484.241a.1.1,0,0,0-.06.03c0-.06.03-.151.03-.211l.06-.423c.091-.453.151-.937.272-1.42a1,1,0,0,0-.333-1.057c-.393-.362-.786-.755-1.179-1.148l-.333-.332c.363-.06.725-.121,1.058-.181s.665-.091,1.028-.151a.914.914,0,0,0,.816-.6c.211-.483.484-1,.725-1.48l.211-.423v-.03l.091.181c.091.151.151.3.241.453.211.423.424.846.6,1.269a1.071,1.071,0,0,0,.908.665c.6.091,1.179.151,1.814.272l.241.03-.272.241c-.424.423-.876.846-1.33,1.269A1.129,1.129,0,0,0,525.665,1693.885Z" transform="translate(-517.131 -1685.849)" fill="#2b265e"/>
      <path id="Path_26211" data-name="Path 26211" d="M544.414,1690.29c-.151-.03-.333-.06-.484-.091-.241-.03-.514-.091-.756-.121-.635-.091-1.33-.211-2-.272a.544.544,0,0,1-.514-.392c-.333-.724-.7-1.42-1.028-2.114l-.363-.755a.733.733,0,0,0-.665-.513h-.03a.871.871,0,0,0-.7.574l-.484.967c-.333.635-.635,1.3-.968,1.933a.431.431,0,0,1-.393.272c-.938.121-1.935.272-3.206.483a.97.97,0,0,0-.665.392c-.272.423.091.755.241.906l.06.06.3.3.514.513c.454.453.938.937,1.421,1.359a.46.46,0,0,1,.151.513c-.121.543-.211,1.118-.3,1.661l-.06.272c-.06.332-.121.664-.151,1l-.06.453v.03a.673.673,0,0,0,.272.6.7.7,0,0,0,.635.06,1.135,1.135,0,0,0,.333-.151l.091-.03c.241-.121.454-.241.7-.362.6-.332,1.27-.664,1.874-1a.545.545,0,0,1,.665,0c.6.362,1.27.664,1.874,1,.241.121.484.241.7.362l.091.03a1.135,1.135,0,0,0,.333.151,1.547,1.547,0,0,0,.333.06.6.6,0,0,0,.614-.587.572.572,0,0,0-.013-.137c0-.091-.03-.181-.03-.241v-.06c-.06-.272-.091-.573-.151-.846-.121-.694-.211-1.42-.393-2.144a.705.705,0,0,1,.272-.755c.756-.694,1.512-1.45,2.238-2.2.3-.332.333-.573.272-.755C545.015,1690.593,544.865,1690.381,544.414,1690.29Zm-3.807,3.746c.121.573.211,1.178.3,1.752l.06.362-.241-.121c-.544-.272-1.089-.573-1.633-.876a.913.913,0,0,0-1.028,0l-1.365.724-.454.241a.1.1,0,0,0-.06.03c0-.06.03-.151.03-.211l.06-.423c.091-.453.151-.937.272-1.42a1,1,0,0,0-.333-1.057c-.393-.362-.786-.755-1.179-1.148l-.3-.3h0c.363-.06.725-.121,1.058-.181.363-.06.7-.091,1.028-.151a.914.914,0,0,0,.816-.6c.211-.513.484-1,.725-1.48l.211-.423v-.03l.091.181c.06.151.151.3.211.453.211.423.424.846.6,1.269a1.071,1.071,0,0,0,.908.665c.6.091,1.179.151,1.814.272l.241.03-.272.272c-.424.423-.846.846-1.3,1.239a1.024,1.024,0,0,0-.266.932Z" transform="translate(-517.131 -1685.849)" fill="#2b265e"/>
      <path id="Path_26212" data-name="Path 26212" d="M559.226,1690.109c-.151-.03-.333-.06-.484-.091-.241-.03-.514-.091-.756-.121-.635-.091-1.33-.211-2-.272a.544.544,0,0,1-.514-.392c-.333-.724-.7-1.42-1.028-2.115l-.363-.724a.707.707,0,0,0-.7-.513.871.871,0,0,0-.7.573l-.454.937c-.333.635-.665,1.3-.968,1.963a.431.431,0,0,1-.393.272c-.938.121-1.935.272-3.206.483a.971.971,0,0,0-.665.392c-.272.423.091.755.241.907l.091.091a2.82,2.82,0,0,0,.3.3l.514.513c.454.453.938.907,1.421,1.359a.46.46,0,0,1,.151.513c-.121.573-.211,1.148-.3,1.691l-.03.241c-.06.332-.121.664-.151,1l-.06.453v.03a.673.673,0,0,0,.272.6.7.7,0,0,0,.635.06,1.136,1.136,0,0,0,.333-.151l.06-.03c.241-.121.454-.241.7-.362.635-.332,1.27-.665,1.874-1a.545.545,0,0,1,.665,0c.6.332,1.24.664,1.874,1l.725.362.091.03a1.136,1.136,0,0,0,.333.151,1.555,1.555,0,0,0,.333.06.6.6,0,0,0,.614-.587.57.57,0,0,0-.013-.137c0-.091-.03-.181-.03-.241v-.06c-.06-.272-.091-.573-.151-.846-.121-.694-.211-1.42-.363-2.114a.689.689,0,0,1,.272-.755c.756-.694,1.451-1.389,2.238-2.2.3-.332.333-.573.272-.756A.952.952,0,0,0,559.226,1690.109Zm-3.779,3.776c.121.573.211,1.178.3,1.752l.06.392-.241-.121c-.544-.272-1.089-.573-1.633-.876a.913.913,0,0,0-1.028,0l-1.36.725-.484.241a.1.1,0,0,0-.06.03c0-.06.03-.151.03-.211l.06-.423c.091-.453.151-.937.241-1.42a1,1,0,0,0-.333-1.057c-.393-.362-.786-.755-1.179-1.148l-.333-.332c.363-.06.725-.121,1.058-.181s.665-.091,1.028-.151a.914.914,0,0,0,.816-.6c.211-.483.484-1,.725-1.48l.211-.423v-.03l.091.181c.091.151.151.3.241.453.211.423.424.816.6,1.239a1.071,1.071,0,0,0,.908.665c.6.091,1.179.151,1.814.272l.241.03-.272.241c-.424.423-.877.846-1.33,1.269a1.164,1.164,0,0,0-.174.964Z" transform="translate(-517.131 -1685.849)" fill="#2b265e"/>
      <path id="Path_26213" data-name="Path 26213" d="M574.495,1690.618a.8.8,0,0,0-.635-.483c-.151-.03-.333-.06-.484-.091-.241-.03-.514-.091-.756-.121-.635-.091-1.33-.211-2-.272a.544.544,0,0,1-.514-.392c-.333-.725-.7-1.42-1.028-2.114l-.363-.725a.708.708,0,0,0-.7-.513.871.871,0,0,0-.7.573l-.454.937c-.333.635-.635,1.3-.968,1.963a.431.431,0,0,1-.393.272c-.938.121-1.935.272-3.205.483a.97.97,0,0,0-.665.392c-.272.423.091.755.241.906l.091.091.272.272.514.513c.454.453.938.937,1.451,1.389a.46.46,0,0,1,.151.513c-.121.574-.211,1.148-.3,1.691l-.03.272c-.06.332-.121.665-.151,1l-.06.453v.03a.673.673,0,0,0,.272.6.7.7,0,0,0,.635.06,1.134,1.134,0,0,0,.333-.151l.06-.03c.241-.121.454-.241.7-.362.635-.332,1.27-.665,1.874-1a.545.545,0,0,1,.665,0c.6.332,1.24.664,1.874,1l.725.362.091.03a1.133,1.133,0,0,0,.333.151,1.554,1.554,0,0,0,.333.06.6.6,0,0,0,.614-.587.571.571,0,0,0-.013-.137c0-.091-.03-.181-.03-.241v-.06c-.06-.272-.091-.575-.151-.846-.121-.694-.211-1.42-.363-2.114a.705.705,0,0,1,.272-.756c.756-.694,1.452-1.389,2.238-2.2A.889.889,0,0,0,574.495,1690.618Zm-4.445,3.262c.121.573.211,1.178.3,1.752l.06.392-.211-.121c-.544-.272-1.089-.574-1.633-.876a.913.913,0,0,0-1.028,0l-1.36.725-.484.241a.1.1,0,0,0-.06.03c0-.06.03-.151.03-.211l.06-.423c.091-.453.151-.937.241-1.42a1,1,0,0,0-.333-1.057c-.393-.362-.786-.755-1.179-1.148l-.333-.332c.363-.06.725-.121,1.058-.181s.665-.091,1.028-.151a.914.914,0,0,0,.816-.6c.211-.483.484-1,.725-1.48l.211-.423v-.03l.091.181a3.265,3.265,0,0,0,.241.453c.211.423.424.846.6,1.269a1.071,1.071,0,0,0,.908.664c.6.091,1.179.151,1.814.272l.241.03-.241.242c-.424.423-.877.846-1.33,1.269a1.087,1.087,0,0,0-.234.937Z" transform="translate(-517.131 -1685.849)" fill="#2b265e"/>
    </g>
  </g>
</svg>
