<svg xmlns="http://www.w3.org/2000/svg" xmlns:xlink="http://www.w3.org/1999/xlink" width="127.878" height="121.399" viewBox="0 0 127.878 121.399">
  <defs>
    <style>
      .cls-1, .cls-2, .cls-3, .cls-4 {
        fill-rule: evenodd;
      }

      .cls-1 {
        opacity: 0.1;
      }

      .cls-1, .cls-3 {
        fill: url(#linear-gradient);
      }

      .cls-2 {
        fill: url(#linear-gradient-2);
      }

      .cls-4 {
        fill: #080014;
      }
    </style>
    <linearGradient id="linear-gradient" x2="1" y2="1" gradientUnits="objectBoundingBox">
      <stop offset="0" stop-color="#048db3"/>
      <stop offset="1" stop-color="#064e61"/>
    </linearGradient>
    <linearGradient id="linear-gradient-2" y1="1" y2="0" xlink:href="#linear-gradient"/>
  </defs>
  <g id="Group_5" data-name="Group 5" transform="translate(4.493 46.558)">
    <g id="Group_4" data-name="Group 4" transform="translate(-4.602 -46.193)">
      <path id="Path_9" data-name="Path 9" class="cls-1" d="M32.418,57.447c4.893-2.484,40.619-16.895,42.439-19.357,5.115-6.923-1.136-.174-10.688-6.884s7.429-7.865,15.044-6.173S98.159,36.561,93.757,39.628c-1.3.91-9.205,7.945-1.209,10.411,15.83,4.883,1.541,9.86,5.294,22.421,1.815,6.074-8.507,14.894-14.847,6.6-5.084-6.652-7.667-10.2-10.411-12.209-3.668-2.681-8.475-3.749-14.748-2.226-5.857,1.422-11.443,6.7-13.972,7.516a.776.776,0,0,1-.116.475c-2.642,3.83-19.2-2.61-19.5-17.413-.061-2.968-3.031-8.545-3.82-12.783-1.415-7.6-27.954-11.9-18.167-18.427,4.3-2.872,2.861-6.149,2.141-8.841C1.142,2.984,11.619-3.98,22.813,2.561s15.855,2.018,21.5,8.329c2.548,2.847,7.38,8.491,4.96,10.919-4.7,4.714-6.4,9.724-19.9,8.208-5.584-.627-3.541,18.069,3.039,27.43Z" transform="translate(0 49.685) rotate(-30)"/>
      <path id="Path_10" data-name="Path 10" class="cls-2" d="M4.421,53.25c0,1.74-.742,3.15-1.658,3.15s-1.658-1.41-1.658-3.15.742-3.15,1.658-3.15,1.658,1.41,1.658,3.15Zm1.105,0c0-2.9-1.237-5.25-2.763-5.25S0,50.351,0,53.25,1.237,58.5,2.763,58.5,5.526,56.149,5.526,53.25Zm53.368-37.5c0,1.74-.742,3.15-1.658,3.15s-1.658-1.41-1.658-3.15.742-3.15,1.658-3.15,1.658,1.41,1.658,3.15Zm1.105,0c0-2.9-1.237-5.25-2.763-5.25s-2.763,2.351-2.763,5.25S55.71,21,57.236,21,60,18.649,60,15.75Zm-27.947,90c0,1.74-.742,3.15-1.658,3.15s-1.658-1.41-1.658-3.15.742-3.15,1.658-3.15,1.658,1.41,1.658,3.15Zm1.105,0c0-2.9-1.237-5.25-2.763-5.25s-2.763,2.351-2.763,5.25S28.868,111,30.394,111,33.158,108.649,33.158,105.75ZM5.684,106.8H7.342c.305,0,.553-.47.553-1.05s-.247-1.05-.553-1.05H5.684v-3.15c0-.58-.247-1.05-.553-1.05s-.553.47-.553,1.05v3.15H2.921c-.305,0-.553.47-.553,1.05s.247,1.05.553,1.05H4.579v3.15c0,.58.247,1.05.553,1.05s.553-.47.553-1.05Zm48.947-4.5h1.658c.305,0,.553-.47.553-1.05s-.247-1.05-.553-1.05H54.631V97.05c0-.58-.247-1.05-.553-1.05s-.553.47-.553,1.05v3.15H51.868c-.305,0-.553.47-.553,1.05s.247,1.05.553,1.05h1.658v3.15c0,.58.247,1.05.553,1.05s.553-.47.553-1.05ZM30.947,6.3H32.6c.305,0,.553-.47.553-1.05S32.91,4.2,32.6,4.2H30.947V1.05C30.947.47,30.7,0,30.394,0s-.553.47-.553,1.05V4.2H28.184c-.305,0-.553.47-.553,1.05s.247,1.05.553,1.05h1.658V9.45c0,.58.247,1.05.553,1.05s.553-.47.553-1.05Z" transform="translate(120.102 30.222) rotate(90)"/>
      <path id="Path_11" data-name="Path 11" class="cls-3" d="M75.75,75.75V9.818A4.57,4.57,0,0,0,71.182,5.25H9.818A4.57,4.57,0,0,0,5.25,9.818V75.75ZM78,80.25H3A2.25,2.25,0,0,1,.75,78V9.818A9.071,9.071,0,0,1,9.818.75H71.182A9.071,9.071,0,0,1,80.25,9.818V78A2.25,2.25,0,0,1,78,80.25Z" transform="translate(24.102 20.941)"/>
      <path id="Path_12" data-name="Path 12" class="cls-4" d="M52.531,74.851a2.25,2.25,0,0,1-3.062,3.3l-10.5-9.75a2.25,2.25,0,0,1,0-3.3l10.5-9.75a2.25,2.25,0,1,1,3.062,3.3l-8.724,8.1Zm16.438-16.2a2.25,2.25,0,1,1,3.062-3.3l10.5,9.75a2.25,2.25,0,0,1,0,3.3l-10.5,9.75a2.25,2.25,0,0,1-3.062-3.3l8.724-8.1-8.724-8.1ZM38.25,36.288a2.25,2.25,0,1,1-4.5,0V36a2.25,2.25,0,0,1,4.5,0Zm13.5,0a2.25,2.25,0,1,1-4.5,0V36a2.25,2.25,0,0,1,4.5,0Zm15,0a2.25,2.25,0,1,1-4.5,0V36a2.25,2.25,0,0,1,4.5,0Z" transform="translate(4.602 4.68)"/>
    </g>
  </g>
</svg>
