<svg xmlns="http://www.w3.org/2000/svg" width="133" height="127" viewBox="0 0 133 127">
  <defs>
    <style>
      .cls-1 {
        fill: #f0f1f8;
      }

      .cls-2 {
        fill: none;
      }

      .cls-3 {
        fill: #2b265e;
      }

      .cls-4 {
        fill: #e7e6e6;
      }

      .cls-5 {
        fill: #8c94c9;
      }

      .cls-6 {
        fill: #97d3f1;
      }

      .cls-7 {
        fill: #fff;
      }

      .cls-8 {
        fill: #13ce66;
      }

      .cls-9 {
        fill: #6f36ff;
      }
    </style>
  </defs>
  <g id="Vector_Smart_Object" data-name="Vector Smart Object" transform="translate(-1310.128 -1601.169)">
    <g id="Group_18747" data-name="Group 18747">
      <g id="Group_19872" data-name="Group 19872">
        <ellipse id="Ellipse_1268" data-name="Ellipse 1268" class="cls-1" cx="63.398" cy="63.5" rx="63.398" ry="63.5" transform="translate(1316.332 1601.169)"/>
        <path id="Path_26160" data-name="Path 26160" class="cls-2" d="M1343.71,1679.539c-.507.032-.475.666-.475.7a19.017,19.017,0,0,1-1.994,4.406,10.982,10.982,0,0,1-1.678,2.467c1.424.159,32.506.032,46.591.063a10.556,10.556,0,0,0,5.888-1.427,8.953,8.953,0,0,0,4.178-5.928H1394C1379.793,1679.791,1348.964,1679.348,1343.71,1679.539Z"/>
        <path id="Path_26161" data-name="Path 26161" class="cls-2" d="M1405.24,1715.868a17.179,17.179,0,0,0,11.837,9.1h.221A17.48,17.48,0,0,1,1405.24,1715.868Z"/>
        <path id="Path_26162" data-name="Path 26162" class="cls-3" d="M1397.391,1643.872a1.8,1.8,0,0,0,1.927-1.672c0-.055.005-.111,0-.167a1.837,1.837,0,0,0-1.737-1.933c-.055,0-.111,0-.166,0a1.754,1.754,0,0,0-1.9,1.6,1.8,1.8,0,0,0,0,.274,1.723,1.723,0,0,0,1.875,1.9Z"/>
        <ellipse id="Ellipse_1269" data-name="Ellipse 1269" class="cls-4" cx="1.804" cy="1.807" rx="1.804" ry="1.807" transform="translate(1310.128 1693.898)"/>
        <ellipse id="Ellipse_1270" data-name="Ellipse 1270" class="cls-5" cx="1.804" cy="1.807" rx="1.804" ry="1.807" transform="translate(1360.011 1702.681)"/>
        <ellipse id="Ellipse_1271" data-name="Ellipse 1271" class="cls-5" cx="1.804" cy="1.807" rx="1.804" ry="1.807" transform="translate(1358.207 1675.257)"/>
        <ellipse id="Ellipse_1272" data-name="Ellipse 1272" class="cls-4" cx="1.804" cy="1.807" rx="1.804" ry="1.807" transform="translate(1433.284 1614.041)"/>
        <ellipse id="Ellipse_1273" data-name="Ellipse 1273" class="cls-6" cx="1.804" cy="1.807" rx="1.804" ry="1.807" transform="translate(1383.116 1660.357)"/>
        <g id="Group_19871" data-name="Group 19871">
          <path id="Path_26163" data-name="Path 26163" class="cls-7" d="M1401.537,1719.736a1.694,1.694,0,0,0,.633.032c-9.5-6.308-14.338-14.932-13.322-26.185.982-11.191,7.248-18.7,17.345-23.4a26.057,26.057,0,0,0-14.624,42.576,1.981,1.981,0,0,1,.538.6,26.407,26.407,0,0,0,5.409,4.5,3.019,3.019,0,0,1,.665.285C1399.29,1718.689,1400.429,1719.2,1401.537,1719.736Z"/>
          <path id="Path_26164" data-name="Path 26164" class="cls-8" d="M1437.208,1695.737a26.024,26.024,0,0,0-25.985-26.028,23.755,23.755,0,0,0-5.032.508c-10.1,4.692-16.364,12.205-17.345,23.4-.982,11.254,3.861,19.909,13.322,26.185-.349-.032-.507,0-.633-.032-1.14-.539-2.248-1.078-3.356-1.617a3.016,3.016,0,0,0-.665-.285,25.974,25.974,0,0,0,39.691-22.129Z"/>
          <path id="Path_26165" data-name="Path 26165" d="M1345.166,1604.5a29.562,29.562,0,0,0-24.654,27.835,29.155,29.155,0,0,0,2.753,13.945,4.085,4.085,0,0,0,.6,1.014,1.871,1.871,0,0,0,2.057.508,1.812,1.812,0,0,0,1.14-1.906,5.943,5.943,0,0,0-.412-1.268,24.657,24.657,0,0,1-2-15.021c1.966-10.715,8.293-17.594,18.643-20.859.728-.222,1.52-.317,2.279-.476-.063.032-.158.063-.221.1a26.579,26.579,0,0,1,5.032-.508,26.028,26.028,0,0,1,.324,52.055c-.108,0-.215,0-.324,0a25.64,25.64,0,0,1-13.705-3.931,1.759,1.759,0,0,0-2.311.825c-.57,1.046-.158,2.029,1.2,2.79a29.443,29.443,0,0,0,37.06-6.657,28.742,28.742,0,0,0,6.362-25.425A29.335,29.335,0,0,0,1345.166,1604.5Z"/>
          <path id="Path_26166" data-name="Path 26166" d="M1438.792,1685.371a19.3,19.3,0,0,0-1.234-2.885,1.9,1.9,0,0,0-2.469-.76,1.806,1.806,0,0,0-.949,2.251,15.625,15.625,0,0,0,.633,1.522,25.783,25.783,0,1,1-49.408,10.208c0-.983-.032-2,0-2.98a11.445,11.445,0,0,1,.284-1.776,25.615,25.615,0,0,1,26.873-21.019,23.464,23.464,0,0,1,8.925,2.124c.95.443,1.836.983,2.817,1.395a1.827,1.827,0,0,0,2.69-1.87,2.047,2.047,0,0,0-1.3-1.68,29.656,29.656,0,1,0-10.762,55.225,27.771,27.771,0,0,0,17.6-8.94C1440.6,1707.246,1442.653,1696.879,1438.792,1685.371Z"/>
          <path id="Path_26167" data-name="Path 26167" d="M1365.106,1703.917c-.443-.222-.917-.38-1.392-.571a41.691,41.691,0,0,1-23.8-23.618,5.189,5.189,0,0,0-.443-.951,1.679,1.679,0,0,0-1.773-.825,1.894,1.894,0,0,0-1.551,1.236,2.138,2.138,0,0,0,.19,1.712,45.333,45.333,0,0,0,13.768,18.861,44.4,44.4,0,0,0,12.629,7.26c.475.158.949.317,1.234.38a1.983,1.983,0,0,0,2.025-1.459A1.751,1.751,0,0,0,1365.106,1703.917Z"/>
          <path id="Path_26168" data-name="Path 26168" d="M1393.182,1624.914a4.619,4.619,0,0,0,1.076.476,41.874,41.874,0,0,1,12.787,8.084,5.277,5.277,0,0,0,.95.7,1.833,1.833,0,0,0,2.183-.412,1.729,1.729,0,0,0,.19-2.187,5.293,5.293,0,0,0-.886-.983,45.942,45.942,0,0,0-13.923-8.75c-.412-.159-.854-.254-1.108-.349a1.975,1.975,0,0,0-1.9,1.173A1.851,1.851,0,0,0,1393.182,1624.914Z"/>
          <path id="Path_26169" data-name="Path 26169" d="M1414.262,1641.558a4.01,4.01,0,0,0,.538,1.522c.665,1.331,1.392,2.631,2.057,3.963.38.793.665,1.68,1.045,2.473a1.86,1.86,0,0,0,2.444.978l.06-.027a1.8,1.8,0,0,0,.959-2.358l-.009-.02a38,38,0,0,0-3.64-7.482,1.735,1.735,0,0,0-1.583-.919,1.715,1.715,0,0,0-1.871,1.543A1.786,1.786,0,0,0,1414.262,1641.558Z"/>
          <path id="Path_26170" data-name="Path 26170" d="M1412.3,1638.831a1.947,1.947,0,0,0,1.994-1.806,1.885,1.885,0,1,0-3.762-.241c0,.048-.005.1,0,.146A2,2,0,0,0,1412.3,1638.831Z"/>
          <path id="Path_26171" data-name="Path 26171" d="M1329.562,1650.562a1.911,1.911,0,0,0-1.773,2.028,1.945,1.945,0,0,0,1.867,1.776,2.025,2.025,0,0,0,1.867-1.965,1.589,1.589,0,0,0-.253-.856c-.19-.191-.349-.38-.538-.6A1.549,1.549,0,0,0,1329.562,1650.562Z"/>
          <path id="Path_26172" data-name="Path 26172" d="M1431.417,1678.966a1.919,1.919,0,1,0-1.867-2A2.164,2.164,0,0,0,1431.417,1678.966Z"/>
          <path id="Path_26173" data-name="Path 26173" class="cls-7" d="M1340.7,1657.916a1.7,1.7,0,0,0,.633.032c-9.5-6.308-14.338-14.932-13.322-26.184.982-11.191,7.248-18.7,17.345-23.4a26.057,26.057,0,0,0-14.624,42.576,1.983,1.983,0,0,1,.538.6,26.4,26.4,0,0,0,5.409,4.5,3.025,3.025,0,0,1,.665.285C1338.456,1656.839,1339.6,1657.378,1340.7,1657.916Z"/>
          <path id="Path_26174" data-name="Path 26174" class="cls-9" d="M1376.374,1633.886a26.024,26.024,0,0,0-25.985-26.028,23.764,23.764,0,0,0-5.032.508c-10.1,4.691-16.365,12.205-17.346,23.4-.982,11.254,3.861,19.909,13.322,26.185-.349-.032-.507,0-.633-.032-1.14-.539-2.248-1.077-3.355-1.617a3.027,3.027,0,0,0-.665-.285,25.974,25.974,0,0,0,39.691-22.128Z"/>
          <path id="Path_26175" data-name="Path 26175" class="cls-7" d="M1330.733,1650.91c.158.191.349.412.538.6A1.945,1.945,0,0,0,1330.733,1650.91Z"/>
        </g>
        <path id="Path_26176" data-name="Path 26176" class="cls-7" d="M1354.728,1632.776c-.665-.349-1.361-.6-2.057-.888a4.957,4.957,0,0,0-.637-.225c-.349-.126-.665-.285-.949-.412V1625.7a10.418,10.418,0,0,1,1.8.508c.728.317,1.361.792,2.089,1.173a2.853,2.853,0,0,0,.6.222,1.566,1.566,0,0,0,1.646-.7,1.445,1.445,0,0,0-.141-2.036c-.036-.031-.073-.06-.112-.088a7.094,7.094,0,0,0-2.089-1.395c-1.171-.476-2.437-.76-3.893-1.2v-.279c0-.38.032-.76,0-1.142a1.236,1.236,0,0,0-1.234-1.236h0a1.213,1.213,0,0,0-1.172,1.253v.015c-.063.539-.063,1.046-.1,1.553-.791.191-1.424.285-2.057.476a6.131,6.131,0,0,0-3.45,2.441,5.615,5.615,0,0,0,.126,6.657,4.864,4.864,0,0,0,1.709,1.459c.665.349,1.361.6,2.057.888a5.1,5.1,0,0,0,.633.222c.349.126.665.285.95.412v5.548a10.412,10.412,0,0,1-1.8-.508c-.728-.317-1.361-.793-2.089-1.173a2.837,2.837,0,0,0-.6-.222,1.566,1.566,0,0,0-1.646.7,1.445,1.445,0,0,0,.141,2.036c.036.031.073.06.112.088a7.1,7.1,0,0,0,2.089,1.395c1.171.475,2.437.76,3.893,1.2v.285c0,.38-.032.76,0,1.142a1.235,1.235,0,0,0,1.234,1.236h0a1.213,1.213,0,0,0,1.172-1.253v-.015c.063-.539.063-1.046.1-1.553.791-.191,1.424-.285,2.057-.475a6.131,6.131,0,0,0,3.45-2.441,5.616,5.616,0,0,0-.128-6.661A5.16,5.16,0,0,0,1354.728,1632.776Zm-.854,5.04c.032,1.3-1.076,2.314-2.817,2.473v-4.534h.032a3.676,3.676,0,0,1,1.329.254,2.119,2.119,0,0,1,1.451,1.807Zm-8.2-9.479c-.032-1.3,1.076-2.314,2.817-2.473v4.534h-.032a3.677,3.677,0,0,1-1.329-.254,2.158,2.158,0,0,1-1.459-1.807Z"/>
        <path id="Path_26177" data-name="Path 26177" class="cls-7" d="M1407.592,1691.933h7.122a1.479,1.479,0,0,1,1.234.508,1.313,1.313,0,0,1,.221,1.459,1.33,1.33,0,0,1-1.3.888H1406.8v1.11c.19,0,.38.032.57.032h7.154a2.7,2.7,0,0,1,.982.191,1.39,1.39,0,0,1,.759,1.585,1.5,1.5,0,0,1-1.424,1.11h-7.248a7.645,7.645,0,0,0,7.6,4.248,6.851,6.851,0,0,0,2.5-.7,2.558,2.558,0,0,1,.823-.285,1.354,1.354,0,0,1,1.519.951,1.446,1.446,0,0,1-.759,1.744,10.947,10.947,0,0,1-3.45,1.078,10.272,10.272,0,0,1-5.919-.888,10.535,10.535,0,0,1-5.349-5.674,3.661,3.661,0,0,1-.19-.475h-1.14c-.475,0-.917-.032-1.392,0a1.513,1.513,0,0,1-1.487-1.3,1.412,1.412,0,0,1,1.261-1.548l.068-.005a11.215,11.215,0,0,1,1.456-.032h.665v-1.109h-2.153a1.458,1.458,0,0,1-1.3-1.363,1.4,1.4,0,0,1,1.266-1.459c.759-.032,1.519,0,2.279-.032h.443c.063-.158.126-.285.19-.412a10.563,10.563,0,0,1,14.718-5.548,1.457,1.457,0,0,1,.7,1.906,1.484,1.484,0,0,1-1.9.729c-.475-.191-.949-.412-1.456-.571a7.653,7.653,0,0,0-8.2,2.508A5.939,5.939,0,0,0,1407.592,1691.933Z"/>
      </g>
    </g>
  </g>
</svg>
